<?xml version="1.0" encoding="UTF-8" standalone="no"?>
<!DOCTYPE svg PUBLIC "-//W3C//DTD SVG 1.1//EN" "http://www.w3.org/Graphics/SVG/1.1/DTD/svg11.dtd">
<svg xmlns="http://www.w3.org/2000/svg" version="1.1" viewBox="0.00 0.00 164.00 29.00">
<g stroke-width="2.00" fill="none" stroke-linecap="butt">
<path stroke="#7a164f" vector-effect="non-scaling-stroke" d="
  M 101.76 11.08
  Q 101.76 9.80 103.04 9.80
  L 107.26 9.80
  Q 107.93 9.80 107.93 9.13
  L 107.93 6.86
  A 0.77 0.76 -0.0 0 0 107.16 6.10
  L 102.57 6.10
  A 0.75 0.75 0.0 0 1 101.82 5.35
  L 101.82 2.12
  Q 101.82 1.31 101.01 1.31
  L 99.03 1.31
  Q 98.26 1.31 98.25 2.07
  Q 98.07 9.76 98.34 17.83
  Q 98.41 19.78 98.97 20.59
  C 100.34 22.60 105.16 22.09 107.22 22.01
  Q 107.89 21.99 107.89 21.31
  L 107.89 19.27
  A 0.87 0.87 0.0 0 0 107.02 18.40
  L 103.22 18.40
  Q 101.76 18.40 101.76 16.94
  L 101.76 11.08"
/>
<path stroke="#7a164f" vector-effect="non-scaling-stroke" d="
  M 113.5722 2.5405
  A 1.29 1.29 0.0 0 0 112.3234 1.2106
  L 111.0640 1.1711
  A 1.29 1.29 0.0 0 0 109.7341 2.4199
  L 109.7078 3.2595
  A 1.29 1.29 0.0 0 0 110.9566 4.5894
  L 112.2160 4.6289
  A 1.29 1.29 0.0 0 0 113.5459 3.3801
  L 113.5722 2.5405"
/>
<path stroke="#7a164f" vector-effect="non-scaling-stroke" d="
  M 162.4189 2.2568
  A 1.05 1.05 0.0 0 0 161.3670 1.2086
  L 159.7870 1.2114
  A 1.05 1.05 0.0 0 0 158.7389 2.2632
  L 158.7411 3.5632
  A 1.05 1.05 0.0 0 0 159.7930 4.6114
  L 161.3730 4.6086
  A 1.05 1.05 0.0 0 0 162.4211 3.5568
  L 162.4189 2.2568"
/>
<path stroke="#7a164f" vector-effect="non-scaling-stroke" d="
  M 18.72 8.62
  L 18.72 21.25
  Q 18.72 21.97 19.45 21.97
  L 21.73 21.97
  Q 22.41 21.97 22.41 21.28
  L 22.41 2.78
  A 0.58 0.56 -86.0 0 0 21.93 2.21
  C 20.20 1.96 18.89 1.87 17.52 3.47
  Q 14.53 6.95 11.78 10.40
  A 0.61 0.60 -44.8 0 1 10.83 10.40
  Q 8.50 7.45 4.95 3.38
  Q 3.94 2.22 3.16 2.13
  Q 1.88 1.97 0.86 2.04
  A 0.72 0.71 87.9 0 0 0.20 2.76
  L 0.20 21.17
  A 0.92 0.91 90.0 0 0 1.11 22.09
  L 2.68 22.09
  Q 3.87 22.09 3.87 20.89
  L 3.87 9.03
  Q 3.87 7.69 4.73 8.72
  L 10.66 15.92
  A 0.74 0.73 44.8 0 0 11.79 15.92
  L 18.09 8.39
  Q 18.72 7.63 18.72 8.62"
/>
<path stroke="#7a164f" vector-effect="non-scaling-stroke" d="
  M 36.77 18.44
  L 28.50 18.44
  A 0.33 0.32 -0.0 0 1 28.17 18.12
  L 28.17 7.02
  Q 28.17 6.11 27.26 6.11
  L 25.50 6.11
  A 1.00 0.99 90.0 0 0 24.51 7.11
  Q 24.49 15.94 24.46 17.29
  Q 24.36 22.11 28.96 22.06
  Q 29.06 22.06 36.55 22.13
  Q 37.27 22.14 37.27 22.87
  L 37.27 23.44
  A 0.77 0.76 90.0 0 1 36.51 24.21
  L 28.11 24.21
  Q 27.13 24.21 27.13 25.19
  L 27.13 27.06
  Q 27.13 27.92 27.99 27.92
  L 37.36 27.92
  A 3.44 3.44 0.0 0 0 40.80 24.48
  L 40.80 6.98
  Q 40.80 6.18 40.01 6.18
  L 38.02 6.18
  Q 37.22 6.18 37.22 6.99
  L 37.22 17.99
  Q 37.22 18.44 36.77 18.44"
/>
<path stroke="#7a164f" vector-effect="non-scaling-stroke" d="
  M 54.70 24.52
  L 46.43 24.52
  A 0.91 0.91 0.0 0 0 45.52 25.43
  L 45.52 27.41
  A 0.81 0.80 -90.0 0 0 46.32 28.22
  L 55.62 28.22
  A 3.46 3.46 0.0 0 0 59.08 24.76
  L 59.08 10.04
  Q 59.08 6.17 55.21 6.17
  L 46.42 6.17
  A 3.43 3.42 -88.4 0 0 43.00 9.41
  Q 42.73 14.04 42.95 18.25
  Q 43.14 21.97 47.03 22.06
  Q 53.11 22.20 54.77 22.15
  A 0.88 0.87 89.1 0 1 55.67 23.03
  L 55.67 23.55
  Q 55.67 24.52 54.70 24.52"
/>
<path stroke="#7a164f" vector-effect="non-scaling-stroke" d="
  M 64.50 16.95
  Q 64.50 15.96 65.49 15.96
  L 74.84 15.96
  Q 77.63 15.96 77.35 13.18
  L 76.95 9.35
  Q 76.64 6.30 73.58 6.19
  Q 70.87 6.10 65.57 6.09
  Q 60.88 6.08 60.93 10.82
  Q 60.99 16.90 61.20 19.33
  A 2.92 2.92 0.0 0 0 64.11 21.99
  L 76.45 21.99
  A 0.68 0.67 90.0 0 0 77.12 21.31
  L 77.12 19.05
  Q 77.12 18.45 76.53 18.45
  L 65.47 18.45
  Q 64.50 18.45 64.50 17.48
  L 64.50 16.95"
/>
<path stroke="#7a164f" vector-effect="non-scaling-stroke" d="
  M 83.74 9.72
  L 91.50 9.72
  A 0.64 0.64 0.0 0 1 92.14 10.36
  L 92.14 21.35
  A 0.68 0.67 0.0 0 0 92.82 22.02
  L 94.99 22.02
  Q 95.74 22.02 95.74 21.27
  L 95.74 9.76
  A 3.62 3.61 90.0 0 0 92.13 6.14
  L 80.09 6.14
  A 0.53 0.52 -90.0 0 0 79.57 6.67
  L 79.57 21.19
  Q 79.57 21.99 80.37 21.99
  L 82.34 21.99
  A 0.86 0.86 0.0 0 0 83.20 21.13
  L 83.20 10.25
  Q 83.20 9.72 83.74 9.72"
/>
<path stroke="#7a164f" vector-effect="non-scaling-stroke" d="
  M 113.5277 7.0168
  A 0.99 0.99 0.0 0 0 112.5360 6.0285
  L 110.8360 6.0315
  A 0.99 0.99 0.0 0 0 109.8477 7.0232
  L 109.8723 21.1032
  A 0.99 0.99 0.0 0 0 110.8640 22.0915
  L 112.5640 22.0885
  A 0.99 0.99 0.0 0 0 113.5523 21.0968
  L 113.5277 7.0168"
/>
<path stroke="#7a164f" vector-effect="non-scaling-stroke" d="
  M 115.41 14.08
  C 115.40 17.04 115.12 19.45 116.76 21.28
  Q 117.34 21.92 119.21 21.98
  Q 124.15 22.15 131.11 22.04
  Q 131.71 22.03 131.71 21.43
  L 131.71 19.14
  A 0.72 0.71 0.0 0 0 130.99 18.43
  L 119.72 18.43
  A 0.57 0.57 0.0 0 1 119.15 17.88
  Q 119.12 17.04 119.13 14.09
  Q 119.14 11.14 119.19 10.30
  A 0.57 0.57 0.0 0 1 119.76 9.76
  L 131.03 9.86
  A 0.72 0.71 0.5 0 0 131.75 9.15
  L 131.77 6.86
  Q 131.78 6.26 131.18 6.25
  Q 124.22 6.08 119.28 6.20
  Q 117.41 6.25 116.83 6.88
  C 115.17 8.70 115.43 11.11 115.41 14.08"
/>
<path stroke="#7a164f" vector-effect="non-scaling-stroke" d="
  M 152.89 11.34
  A 0.82 0.81 -90.0 0 1 152.08 12.16
  L 142.31 12.16
  Q 139.70 12.16 139.97 14.75
  L 140.43 19.20
  A 3.17 3.15 -2.9 0 0 143.58 22.03
  L 155.78 22.03
  Q 156.38 22.03 156.39 21.43
  C 156.42 17.37 156.32 13.91 156.42 10.69
  Q 156.50 7.98 154.63 6.82
  Q 153.46 6.10 150.37 6.10
  Q 142.72 6.11 140.90 6.15
  Q 140.07 6.17 140.07 7.00
  L 140.07 9.11
  Q 140.07 9.83 140.78 9.83
  L 151.83 9.83
  A 1.06 1.06 0.0 0 1 152.89 10.89
  L 152.89 11.34"
/>
<path stroke="#7a164f" vector-effect="non-scaling-stroke" d="
  M 162.4228 6.6933
  A 0.64 0.64 0.0 0 0 161.7839 6.0522
  L 159.3239 6.0479
  A 0.64 0.64 0.0 0 0 158.6828 6.6867
  L 158.6572 21.3667
  A 0.64 0.64 0.0 0 0 159.2961 22.0078
  L 161.7561 22.0121
  A 0.64 0.64 0.0 0 0 162.3972 21.3733
  L 162.4228 6.6933"
/>
<path stroke="#7a164f" vector-effect="non-scaling-stroke" d="
  M 137.8017 19.1707
  A 0.95 0.95 0.0 0 0 136.7862 18.2911
  L 135.0107 18.4183
  A 0.95 0.95 0.0 0 0 134.1311 19.4338
  L 134.2583 21.2093
  A 0.95 0.95 0.0 0 0 135.2738 22.0889
  L 137.0493 21.9617
  A 0.95 0.95 0.0 0 0 137.9289 20.9462
  L 137.8017 19.1707"
/>
<path stroke="#7a164f" vector-effect="non-scaling-stroke" d="
  M 55.4268 10.1977
  A 0.46 0.46 0.0 0 0 54.9676 9.7368
  L 47.1277 9.7232
  A 0.46 0.46 0.0 0 0 46.6668 10.1824
  L 46.6532 18.0223
  A 0.46 0.46 0.0 0 0 47.1124 18.4832
  L 54.9523 18.4968
  A 0.46 0.46 0.0 0 0 55.4132 18.0376
  L 55.4268 10.1977"
/>
<path stroke="#7a164f" vector-effect="non-scaling-stroke" d="
  M 73.65 10.54
  A 0.79 0.79 0.0 0 0 72.86 9.75
  L 65.40 9.75
  A 0.79 0.79 0.0 0 0 64.61 10.54
  L 64.61 11.76
  A 0.79 0.79 0.0 0 0 65.40 12.55
  L 72.86 12.55
  A 0.79 0.79 0.0 0 0 73.65 11.76
  L 73.65 10.54"
/>
<path stroke="#7a164f" vector-effect="non-scaling-stroke" d="
  M 152.8415 16.6759
  A 0.84 0.84 0.0 0 0 152.0045 15.8329
  L 144.6045 15.8071
  A 0.84 0.84 0.0 0 0 143.7616 16.6442
  L 143.7585 17.5441
  A 0.84 0.84 0.0 0 0 144.5955 18.3871
  L 151.9955 18.4129
  A 0.84 0.84 0.0 0 0 152.8384 17.5758
  L 152.8415 16.6759"
/>
</g>
<path fill="#010001" d="
  M 164.00 0.00
  L 164.00 29.00
  L 0.00 29.00
  L 0.00 0.00
  L 164.00 0.00
  Z
  M 101.76 11.08
  Q 101.76 9.80 103.04 9.80
  L 107.26 9.80
  Q 107.93 9.80 107.93 9.13
  L 107.93 6.86
  A 0.77 0.76 -0.0 0 0 107.16 6.10
  L 102.57 6.10
  A 0.75 0.75 0.0 0 1 101.82 5.35
  L 101.82 2.12
  Q 101.82 1.31 101.01 1.31
  L 99.03 1.31
  Q 98.26 1.31 98.25 2.07
  Q 98.07 9.76 98.34 17.83
  Q 98.41 19.78 98.97 20.59
  C 100.34 22.60 105.16 22.09 107.22 22.01
  Q 107.89 21.99 107.89 21.31
  L 107.89 19.27
  A 0.87 0.87 0.0 0 0 107.02 18.40
  L 103.22 18.40
  Q 101.76 18.40 101.76 16.94
  L 101.76 11.08
  Z
  M 113.5722 2.5405
  A 1.29 1.29 0.0 0 0 112.3234 1.2106
  L 111.0640 1.1711
  A 1.29 1.29 0.0 0 0 109.7341 2.4199
  L 109.7078 3.2595
  A 1.29 1.29 0.0 0 0 110.9566 4.5894
  L 112.2160 4.6289
  A 1.29 1.29 0.0 0 0 113.5459 3.3801
  L 113.5722 2.5405
  Z
  M 162.4189 2.2568
  A 1.05 1.05 0.0 0 0 161.3670 1.2086
  L 159.7870 1.2114
  A 1.05 1.05 0.0 0 0 158.7389 2.2632
  L 158.7411 3.5632
  A 1.05 1.05 0.0 0 0 159.7930 4.6114
  L 161.3730 4.6086
  A 1.05 1.05 0.0 0 0 162.4211 3.5568
  L 162.4189 2.2568
  Z
  M 18.72 8.62
  L 18.72 21.25
  Q 18.72 21.97 19.45 21.97
  L 21.73 21.97
  Q 22.41 21.97 22.41 21.28
  L 22.41 2.78
  A 0.58 0.56 -86.0 0 0 21.93 2.21
  C 20.20 1.96 18.89 1.87 17.52 3.47
  Q 14.53 6.95 11.78 10.40
  A 0.61 0.60 -44.8 0 1 10.83 10.40
  Q 8.50 7.45 4.95 3.38
  Q 3.94 2.22 3.16 2.13
  Q 1.88 1.97 0.86 2.04
  A 0.72 0.71 87.9 0 0 0.20 2.76
  L 0.20 21.17
  A 0.92 0.91 90.0 0 0 1.11 22.09
  L 2.68 22.09
  Q 3.87 22.09 3.87 20.89
  L 3.87 9.03
  Q 3.87 7.69 4.73 8.72
  L 10.66 15.92
  A 0.74 0.73 44.8 0 0 11.79 15.92
  L 18.09 8.39
  Q 18.72 7.63 18.72 8.62
  Z
  M 36.77 18.44
  L 28.50 18.44
  A 0.33 0.32 -0.0 0 1 28.17 18.12
  L 28.17 7.02
  Q 28.17 6.11 27.26 6.11
  L 25.50 6.11
  A 1.00 0.99 90.0 0 0 24.51 7.11
  Q 24.49 15.94 24.46 17.29
  Q 24.36 22.11 28.96 22.06
  Q 29.06 22.06 36.55 22.13
  Q 37.27 22.14 37.27 22.87
  L 37.27 23.44
  A 0.77 0.76 90.0 0 1 36.51 24.21
  L 28.11 24.21
  Q 27.13 24.21 27.13 25.19
  L 27.13 27.06
  Q 27.13 27.92 27.99 27.92
  L 37.36 27.92
  A 3.44 3.44 0.0 0 0 40.80 24.48
  L 40.80 6.98
  Q 40.80 6.18 40.01 6.18
  L 38.02 6.18
  Q 37.22 6.18 37.22 6.99
  L 37.22 17.99
  Q 37.22 18.44 36.77 18.44
  Z
  M 54.70 24.52
  L 46.43 24.52
  A 0.91 0.91 0.0 0 0 45.52 25.43
  L 45.52 27.41
  A 0.81 0.80 -90.0 0 0 46.32 28.22
  L 55.62 28.22
  A 3.46 3.46 0.0 0 0 59.08 24.76
  L 59.08 10.04
  Q 59.08 6.17 55.21 6.17
  L 46.42 6.17
  A 3.43 3.42 -88.4 0 0 43.00 9.41
  Q 42.73 14.04 42.95 18.25
  Q 43.14 21.97 47.03 22.06
  Q 53.11 22.20 54.77 22.15
  A 0.88 0.87 89.1 0 1 55.67 23.03
  L 55.67 23.55
  Q 55.67 24.52 54.70 24.52
  Z
  M 64.50 16.95
  Q 64.50 15.96 65.49 15.96
  L 74.84 15.96
  Q 77.63 15.96 77.35 13.18
  L 76.95 9.35
  Q 76.64 6.30 73.58 6.19
  Q 70.87 6.10 65.57 6.09
  Q 60.88 6.08 60.93 10.82
  Q 60.99 16.90 61.20 19.33
  A 2.92 2.92 0.0 0 0 64.11 21.99
  L 76.45 21.99
  A 0.68 0.67 90.0 0 0 77.12 21.31
  L 77.12 19.05
  Q 77.12 18.45 76.53 18.45
  L 65.47 18.45
  Q 64.50 18.45 64.50 17.48
  L 64.50 16.95
  Z
  M 83.74 9.72
  L 91.50 9.72
  A 0.64 0.64 0.0 0 1 92.14 10.36
  L 92.14 21.35
  A 0.68 0.67 0.0 0 0 92.82 22.02
  L 94.99 22.02
  Q 95.74 22.02 95.74 21.27
  L 95.74 9.76
  A 3.62 3.61 90.0 0 0 92.13 6.14
  L 80.09 6.14
  A 0.53 0.52 -90.0 0 0 79.57 6.67
  L 79.57 21.19
  Q 79.57 21.99 80.37 21.99
  L 82.34 21.99
  A 0.86 0.86 0.0 0 0 83.20 21.13
  L 83.20 10.25
  Q 83.20 9.72 83.74 9.72
  Z
  M 113.5277 7.0168
  A 0.99 0.99 0.0 0 0 112.5360 6.0285
  L 110.8360 6.0315
  A 0.99 0.99 0.0 0 0 109.8477 7.0232
  L 109.8723 21.1032
  A 0.99 0.99 0.0 0 0 110.8640 22.0915
  L 112.5640 22.0885
  A 0.99 0.99 0.0 0 0 113.5523 21.0968
  L 113.5277 7.0168
  Z
  M 115.41 14.08
  C 115.40 17.04 115.12 19.45 116.76 21.28
  Q 117.34 21.92 119.21 21.98
  Q 124.15 22.15 131.11 22.04
  Q 131.71 22.03 131.71 21.43
  L 131.71 19.14
  A 0.72 0.71 0.0 0 0 130.99 18.43
  L 119.72 18.43
  A 0.57 0.57 0.0 0 1 119.15 17.88
  Q 119.12 17.04 119.13 14.09
  Q 119.14 11.14 119.19 10.30
  A 0.57 0.57 0.0 0 1 119.76 9.76
  L 131.03 9.86
  A 0.72 0.71 0.5 0 0 131.75 9.15
  L 131.77 6.86
  Q 131.78 6.26 131.18 6.25
  Q 124.22 6.08 119.28 6.20
  Q 117.41 6.25 116.83 6.88
  C 115.17 8.70 115.43 11.11 115.41 14.08
  Z
  M 152.89 11.34
  A 0.82 0.81 -90.0 0 1 152.08 12.16
  L 142.31 12.16
  Q 139.70 12.16 139.97 14.75
  L 140.43 19.20
  A 3.17 3.15 -2.9 0 0 143.58 22.03
  L 155.78 22.03
  Q 156.38 22.03 156.39 21.43
  C 156.42 17.37 156.32 13.91 156.42 10.69
  Q 156.50 7.98 154.63 6.82
  Q 153.46 6.10 150.37 6.10
  Q 142.72 6.11 140.90 6.15
  Q 140.07 6.17 140.07 7.00
  L 140.07 9.11
  Q 140.07 9.83 140.78 9.83
  L 151.83 9.83
  A 1.06 1.06 0.0 0 1 152.89 10.89
  L 152.89 11.34
  Z
  M 162.4228 6.6933
  A 0.64 0.64 0.0 0 0 161.7839 6.0522
  L 159.3239 6.0479
  A 0.64 0.64 0.0 0 0 158.6828 6.6867
  L 158.6572 21.3667
  A 0.64 0.64 0.0 0 0 159.2961 22.0078
  L 161.7561 22.0121
  A 0.64 0.64 0.0 0 0 162.3972 21.3733
  L 162.4228 6.6933
  Z
  M 137.8017 19.1707
  A 0.95 0.95 0.0 0 0 136.7862 18.2911
  L 135.0107 18.4183
  A 0.95 0.95 0.0 0 0 134.1311 19.4338
  L 134.2583 21.2093
  A 0.95 0.95 0.0 0 0 135.2738 22.0889
  L 137.0493 21.9617
  A 0.95 0.95 0.0 0 0 137.9289 20.9462
  L 137.8017 19.1707
  Z"
/>
<path fill="#f32b9c" d="
  M 101.76 11.08
  L 101.76 16.94
  Q 101.76 18.40 103.22 18.40
  L 107.02 18.40
  A 0.87 0.87 0.0 0 1 107.89 19.27
  L 107.89 21.31
  Q 107.89 21.99 107.22 22.01
  C 105.16 22.09 100.34 22.60 98.97 20.59
  Q 98.41 19.78 98.34 17.83
  Q 98.07 9.76 98.25 2.07
  Q 98.26 1.31 99.03 1.31
  L 101.01 1.31
  Q 101.82 1.31 101.82 2.12
  L 101.82 5.35
  A 0.75 0.75 0.0 0 0 102.57 6.10
  L 107.16 6.10
  A 0.77 0.76 -0.0 0 1 107.93 6.86
  L 107.93 9.13
  Q 107.93 9.80 107.26 9.80
  L 103.04 9.80
  Q 101.76 9.80 101.76 11.08
  Z"
/>
<rect fill="#f32b9c" x="-1.92" y="-1.71" transform="translate(111.64,2.90) rotate(1.8)" width="3.84" height="3.42" rx="1.29"/>
<rect fill="#f32b9c" x="-1.84" y="-1.70" transform="translate(160.58,2.91) rotate(-0.1)" width="3.68" height="3.40" rx="1.05"/>
<path fill="#f32b9c" d="
  M 18.72 8.62
  Q 18.72 7.63 18.09 8.39
  L 11.79 15.92
  A 0.74 0.73 44.8 0 1 10.66 15.92
  L 4.73 8.72
  Q 3.87 7.69 3.87 9.03
  L 3.87 20.89
  Q 3.87 22.09 2.68 22.09
  L 1.11 22.09
  A 0.92 0.91 90.0 0 1 0.20 21.17
  L 0.20 2.76
  A 0.72 0.71 87.9 0 1 0.86 2.04
  Q 1.88 1.97 3.16 2.13
  Q 3.94 2.22 4.95 3.38
  Q 8.50 7.45 10.83 10.40
  A 0.61 0.60 -44.8 0 0 11.78 10.40
  Q 14.53 6.95 17.52 3.47
  C 18.89 1.87 20.20 1.96 21.93 2.21
  A 0.58 0.56 -86.0 0 1 22.41 2.78
  L 22.41 21.28
  Q 22.41 21.97 21.73 21.97
  L 19.45 21.97
  Q 18.72 21.97 18.72 21.25
  L 18.72 8.62
  Z"
/>
<path fill="#f32b9c" d="
  M 37.22 17.99
  L 37.22 6.99
  Q 37.22 6.18 38.02 6.18
  L 40.01 6.18
  Q 40.80 6.18 40.80 6.98
  L 40.80 24.48
  A 3.44 3.44 0.0 0 1 37.36 27.92
  L 27.99 27.92
  Q 27.13 27.92 27.13 27.06
  L 27.13 25.19
  Q 27.13 24.21 28.11 24.21
  L 36.51 24.21
  A 0.77 0.76 -90.0 0 0 37.27 23.44
  L 37.27 22.87
  Q 37.27 22.14 36.55 22.13
  Q 29.06 22.06 28.96 22.06
  Q 24.36 22.11 24.46 17.29
  Q 24.49 15.94 24.51 7.11
  A 1.00 0.99 90.0 0 1 25.50 6.11
  L 27.26 6.11
  Q 28.17 6.11 28.17 7.02
  L 28.17 18.12
  A 0.33 0.32 0.0 0 0 28.50 18.44
  L 36.77 18.44
  Q 37.22 18.44 37.22 17.99
  Z"
/>
<path fill="#f32b9c" d="
  M 54.70 24.52
  Q 55.67 24.52 55.67 23.55
  L 55.67 23.03
  A 0.88 0.87 89.1 0 0 54.77 22.15
  Q 53.11 22.20 47.03 22.06
  Q 43.14 21.97 42.95 18.25
  Q 42.73 14.04 43.00 9.41
  A 3.43 3.42 -88.4 0 1 46.42 6.17
  L 55.21 6.17
  Q 59.08 6.17 59.08 10.04
  L 59.08 24.76
  A 3.46 3.46 0.0 0 1 55.62 28.22
  L 46.32 28.22
  A 0.81 0.80 -90.0 0 1 45.52 27.41
  L 45.52 25.43
  A 0.91 0.91 0.0 0 1 46.43 24.52
  L 54.70 24.52
  Z
  M 55.4268 10.1977
  A 0.46 0.46 0.0 0 0 54.9676 9.7368
  L 47.1277 9.7232
  A 0.46 0.46 0.0 0 0 46.6668 10.1824
  L 46.6532 18.0223
  A 0.46 0.46 0.0 0 0 47.1124 18.4832
  L 54.9523 18.4968
  A 0.46 0.46 0.0 0 0 55.4132 18.0376
  L 55.4268 10.1977
  Z"
/>
<path fill="#f32b9c" d="
  M 65.47 18.45
  L 76.53 18.45
  Q 77.12 18.45 77.12 19.05
  L 77.12 21.31
  A 0.68 0.67 90.0 0 1 76.45 21.99
  L 64.11 21.99
  A 2.92 2.92 0.0 0 1 61.20 19.33
  Q 60.99 16.90 60.93 10.82
  Q 60.88 6.08 65.57 6.09
  Q 70.87 6.10 73.58 6.19
  Q 76.64 6.30 76.95 9.35
  L 77.35 13.18
  Q 77.63 15.96 74.84 15.96
  L 65.49 15.96
  Q 64.50 15.96 64.50 16.95
  L 64.50 17.48
  Q 64.50 18.45 65.47 18.45
  Z
  M 73.65 10.54
  A 0.79 0.79 0.0 0 0 72.86 9.75
  L 65.40 9.75
  A 0.79 0.79 0.0 0 0 64.61 10.54
  L 64.61 11.76
  A 0.79 0.79 0.0 0 0 65.40 12.55
  L 72.86 12.55
  A 0.79 0.79 0.0 0 0 73.65 11.76
  L 73.65 10.54
  Z"
/>
<path fill="#f32b9c" d="
  M 83.74 9.72
  Q 83.20 9.72 83.20 10.25
  L 83.20 21.13
  A 0.86 0.86 0.0 0 1 82.34 21.99
  L 80.37 21.99
  Q 79.57 21.99 79.57 21.19
  L 79.57 6.67
  A 0.53 0.52 90.0 0 1 80.09 6.14
  L 92.13 6.14
  A 3.62 3.61 -90.0 0 1 95.74 9.76
  L 95.74 21.27
  Q 95.74 22.02 94.99 22.02
  L 92.82 22.02
  A 0.68 0.67 -0.0 0 1 92.14 21.35
  L 92.14 10.36
  A 0.64 0.64 0.0 0 0 91.50 9.72
  L 83.74 9.72
  Z"
/>
<rect fill="#f32b9c" x="-1.84" y="-8.03" transform="translate(111.70,14.06) rotate(-0.1)" width="3.68" height="16.06" rx="0.99"/>
<path fill="#f32b9c" d="
  M 119.13 14.09
  Q 119.12 17.04 119.15 17.88
  A 0.57 0.57 0.0 0 0 119.72 18.43
  L 130.99 18.43
  A 0.72 0.71 -0.0 0 1 131.71 19.14
  L 131.71 21.43
  Q 131.71 22.03 131.11 22.04
  Q 124.15 22.15 119.21 21.98
  Q 117.34 21.92 116.76 21.28
  C 115.12 19.45 115.40 17.04 115.41 14.08
  C 115.43 11.11 115.17 8.70 116.83 6.88
  Q 117.41 6.25 119.28 6.20
  Q 124.22 6.08 131.18 6.25
  Q 131.78 6.26 131.77 6.86
  L 131.75 9.15
  A 0.72 0.71 0.5 0 1 131.03 9.86
  L 119.76 9.76
  A 0.57 0.57 0.0 0 0 119.19 10.30
  Q 119.14 11.14 119.13 14.09
  Z"
/>
<path fill="#f32b9c" d="
  M 152.89 11.34
  L 152.89 10.89
  A 1.06 1.06 0.0 0 0 151.83 9.83
  L 140.78 9.83
  Q 140.07 9.83 140.07 9.11
  L 140.07 7.00
  Q 140.07 6.17 140.90 6.15
  Q 142.72 6.11 150.37 6.10
  Q 153.46 6.10 154.63 6.82
  Q 156.50 7.98 156.42 10.69
  C 156.32 13.91 156.42 17.37 156.39 21.43
  Q 156.38 22.03 155.78 22.03
  L 143.58 22.03
  A 3.17 3.15 -2.9 0 1 140.43 19.20
  L 139.97 14.75
  Q 139.70 12.16 142.31 12.16
  L 152.08 12.16
  A 0.82 0.81 -90.0 0 0 152.89 11.34
  Z
  M 152.8415 16.6759
  A 0.84 0.84 0.0 0 0 152.0045 15.8329
  L 144.6045 15.8071
  A 0.84 0.84 0.0 0 0 143.7616 16.6442
  L 143.7585 17.5441
  A 0.84 0.84 0.0 0 0 144.5955 18.3871
  L 151.9955 18.4129
  A 0.84 0.84 0.0 0 0 152.8384 17.5758
  L 152.8415 16.6759
  Z"
/>
<rect fill="#f32b9c" x="-1.87" y="-7.98" transform="translate(160.54,14.03) rotate(0.1)" width="3.74" height="15.96" rx="0.64"/>
<rect fill="#010001" x="-4.38" y="-4.38" transform="translate(51.04,14.11) rotate(0.1)" width="8.76" height="8.76" rx="0.46"/>
<rect fill="#010001" x="64.61" y="9.75" width="9.04" height="2.80" rx="0.79"/>
<rect fill="#010001" x="-4.54" y="-1.29" transform="translate(148.30,17.11) rotate(0.2)" width="9.08" height="2.58" rx="0.84"/>
<rect fill="#f32b9c" x="-1.84" y="-1.84" transform="translate(136.03,20.19) rotate(-4.1)" width="3.68" height="3.68" rx="0.95"/>
</svg>
